<?xml version="1.0" encoding="UTF-8"?>
<svg xmlns="http://www.w3.org/2000/svg" width="18" height="18" viewBox="0 0 18 18" fill="none">
  <g clip-path="url(#clip0_467_388)">
    <path d="M14.1401 10.1595V10.1676L14.1361 10.1636L13.9835 10.4552C13.889 10.6361 13.7688 10.8008 13.6244 10.9439L10.9809 13.5874C10.8378 13.7305 10.6717 13.852 10.4921 13.9465L10.2005 14.0991L10.2046 14.1032H10.1965L10.1681 16.127C10.1519 17.2894 11.5574 17.8834 12.3796 17.0612C12.4295 17.0113 12.4592 16.9438 12.4619 16.8722L12.6415 15.2737C12.6442 15.2021 12.6725 15.1346 12.7238 15.0847L15.1216 12.6869C15.1716 12.6369 15.2391 12.6072 15.3106 12.6045L16.9092 12.425C16.9807 12.4223 17.0482 12.3939 17.0982 12.3426C17.9204 11.5204 17.3277 10.115 16.1639 10.1312L14.1401 10.1595Z" fill="#FD4B32"/>
    <path d="M3.39703 7.3027V7.2946L3.40108 7.29865L3.55364 7.00703C3.64815 6.82611 3.76831 6.6614 3.91277 6.51829L6.55627 3.87479C6.69938 3.73168 6.86544 3.61017 7.045 3.51567L7.33662 3.3631L7.33257 3.35905H7.34067L7.36903 1.33525C7.38523 0.172817 5.97977 -0.421227 5.15756 0.400984C5.10761 0.450938 5.07791 0.518443 5.07521 0.589998L4.89564 2.18852C4.89294 2.26007 4.86459 2.32758 4.81329 2.37753L2.41551 4.77531C2.36555 4.82526 2.29805 4.85496 2.22649 4.85767L0.627975 5.03723C0.556419 5.03993 0.488914 5.06828 0.438961 5.11958C-0.38325 5.9418 0.209444 7.34725 1.37323 7.33105L3.39703 7.3027Z" fill="#FD4B32"/>
    <path d="M7.27565 14.1599L7.2797 14.1558L6.98808 14.0032C6.80716 13.9087 6.64245 13.7886 6.49934 13.6441L3.85584 11.0006C3.71273 10.8575 3.59122 10.6914 3.49672 10.5119L3.34416 10.2203L3.34011 10.2243V10.2162L1.31631 10.1879C0.15387 10.1717 -0.440175 11.5771 0.382036 12.3993C0.43199 12.4493 0.499495 12.479 0.57105 12.4817L2.16957 12.6612C2.24112 12.6639 2.30863 12.6923 2.35858 12.7436L4.75636 15.1414C4.80631 15.1913 4.83602 15.2588 4.83872 15.3304L5.01828 16.9289C5.02098 17.0005 5.04933 17.068 5.10064 17.1179C5.92285 17.9401 7.3283 17.3474 7.3121 16.1837L7.28375 14.1599H7.27565Z" fill="#FD4B32"/>
    <path d="M16.9287 5.01968L15.3302 4.84012C15.2586 4.83741 15.1911 4.80906 15.1412 4.75776L12.7434 2.35998C12.6934 2.31003 12.6637 2.24252 12.661 2.17097L12.4815 0.572448C12.4788 0.500893 12.4504 0.433388 12.3991 0.383434C11.5769 -0.438777 10.1714 0.153917 10.1876 1.3177L10.216 3.3415H10.2241L10.22 3.34555L10.5117 3.49812C10.6926 3.59262 10.8573 3.71278 11.0004 3.85724L13.6439 6.50074C13.787 6.64385 13.9085 6.80991 14.003 6.98948L14.1556 7.2811L14.1596 7.27705V7.28515L16.1834 7.3135C17.3459 7.3297 17.9399 5.92425 17.1177 5.10203C17.0678 5.05208 17.0002 5.02238 16.9287 5.01968Z" fill="#FD4B32"/>
  </g>
  <defs>
    <clipPath id="clip0_467_388">
      <rect width="17.5" height="17.5" fill="white"/>
    </clipPath>
  </defs>
</svg>
