<?xml version="1.0" encoding="UTF-8"?>
<svg xmlns="http://www.w3.org/2000/svg" width="13" height="13" viewBox="0 0 13 13" fill="none">
  <path d="M12.5 6.24873V6.24602L12.4992 6.24737L12.5 6.24873Z" fill="currentColor"/>
  <path d="M12.4975 6.24813L12.498 6.2474L12.4975 6.24664V6.24813Z" fill="currentColor"/>
  <path d="M12.5 6.19718L9.25837 2.65334e-06L6.28415 0L6.40883 0.242867L9.48923 6.1318L9.45671 6.18785L5.6713 12.4979L6.32043 12.5L8.84349 12.5L12.5 6.19718L12.4116 6.14639Z" fill="currentColor"/>
  <path d="M6.8287 6.24875V6.24604L6.82788 6.24739L6.8287 6.24875Z" fill="currentColor"/>
  <path d="M6.82622 6.24816L6.82674 6.24742L6.82622 6.24666V6.24816Z" fill="currentColor"/>
  <path d="M6.8287 6.1972L3.58707 2.51224e-05L0.612845 2.24691e-05L0.737528 0.242889L3.81792 6.13182L3.78541 6.18787L0 12.4979L0.649126 12.5L3.17219 12.5L6.8287 6.1972L6.7403 6.14641Z" fill="currentColor"/>
</svg>
