<?xml version="1.0" encoding="UTF-8"?>
<svg xmlns="http://www.w3.org/2000/svg" width="18" height="18" viewBox="0 0 18 18" fill="none">
  <g clip-path="url(#clip0_467_438)">
    <path d="M15.5633 6.82914C14.6808 6.82914 13.9381 7.41919 13.7034 8.22601C13.6393 8.44535 13.4404 8.59928 13.2121 8.59928H11.247C10.512 8.59928 10.1439 7.71036 10.6634 7.18958L12.023 5.82991C12.1847 5.66829 12.4335 5.63494 12.6349 5.74525C13.3712 6.15059 14.314 6.04156 14.9374 5.41816C15.7185 4.63699 15.6929 3.35428 14.8617 2.60646C14.1113 1.93176 12.9376 1.95741 12.2155 2.66162C11.5754 3.28502 11.4612 4.23935 11.8717 4.98332C11.982 5.18343 11.9486 5.43227 11.787 5.59389L10.3286 7.05233C9.80909 7.57183 8.91889 7.20369 8.91889 6.4687V4.28938C8.91889 4.06106 9.07153 3.86095 9.29087 3.7981C10.1105 3.5608 10.7057 2.79887 10.689 1.89841C10.6698 0.895329 9.85911 0.0564373 8.85732 0.00256348C7.74008 -0.0564411 6.81524 0.832476 6.81524 1.93689C6.81524 2.81939 7.40529 3.56208 8.21211 3.79682C8.43146 3.86095 8.58538 4.05977 8.58538 4.28809V6.46742C8.58538 7.20241 7.69647 7.57055 7.17569 7.05105L5.71725 5.59261C5.55562 5.43099 5.52227 5.18214 5.63259 4.98204C6.04177 4.23935 5.92761 3.28502 5.28882 2.66034C4.56666 1.95613 3.39298 1.93048 2.64259 2.60518C1.81011 3.35428 1.78574 4.63571 2.56691 5.41688C3.19031 6.04028 4.1331 6.14931 4.86937 5.74397C5.06948 5.63366 5.31832 5.66572 5.48123 5.82863L6.8409 7.1883C7.3604 7.7078 6.99226 8.598 6.25727 8.598H4.29472C4.06512 8.598 3.8663 8.44535 3.80344 8.22473C3.56999 7.4179 2.82602 6.82786 1.94352 6.82786C0.83269 6.82914 -0.0562277 7.75397 0.0027769 8.87121C0.055368 9.87301 0.89426 10.6837 1.89734 10.7029C2.7978 10.7209 3.55973 10.1244 3.79703 9.30477C3.85988 9.08543 4.05999 8.93278 4.28831 8.93278H6.433C7.16799 8.93278 7.53613 9.8217 7.01663 10.3425L5.4761 11.883C5.31447 12.0446 5.06563 12.078 4.86424 11.9677C4.12797 11.5623 3.18518 11.6714 2.56178 12.2948C1.78061 13.0759 1.80627 14.3586 2.63746 15.1065C3.38785 15.7812 4.56152 15.7555 5.28369 15.0513C5.92376 14.4279 6.03792 13.4736 5.62746 12.7296C5.51714 12.5295 5.55049 12.2807 5.71211 12.119L7.17056 10.6606C7.69005 10.1411 8.58025 10.5092 8.58025 11.2442V13.4235C8.58025 13.6532 8.42761 13.852 8.20698 13.9148C7.40016 14.1483 6.81011 14.8923 6.81011 15.7748C6.81011 16.8792 7.73495 17.7681 8.85219 17.7091C9.85398 17.6565 10.6647 16.8163 10.6839 15.8132C10.7019 14.9128 10.1054 14.1508 9.28574 13.9135C9.0664 13.8507 8.91376 13.6506 8.91376 13.4223V11.2429C8.91376 10.508 9.80267 10.1398 10.3235 10.6593L11.7819 12.1178C11.9435 12.2794 11.9769 12.5282 11.8666 12.7283C11.4574 13.471 11.5715 14.4253 12.2103 15.05C12.9325 15.7542 14.1062 15.7799 14.8565 15.1052C15.689 14.3561 15.7134 13.0747 14.9322 12.2935C14.3088 11.6701 13.366 11.5611 12.6298 11.9664C12.4297 12.0767 12.1808 12.0446 12.0179 11.8817L10.4774 10.3412C9.95788 9.8217 10.326 8.9315 11.061 8.9315H13.2083C13.4366 8.9315 13.6367 9.08414 13.6995 9.30349C13.9368 10.1231 14.6988 10.7196 15.5992 10.7016C16.6023 10.6811 17.4412 9.87173 17.4938 8.86993C17.5528 7.75269 16.6639 6.82786 15.5595 6.82786L15.5633 6.82914Z" fill="#FD4B32"/>
  </g>
  <defs>
    <clipPath id="clip0_467_438">
      <rect width="17.5" height="17.7142" fill="white"/>
    </clipPath>
  </defs>
</svg>
