<?xml version="1.0" encoding="UTF-8"?>
<svg xmlns="http://www.w3.org/2000/svg" width="18" height="19" viewBox="0 0 18 19" fill="none">
  <g clip-path="url(#clip0_467_416)">
    <path d="M14.7075 13.6351C15.0017 13.341 15.0017 12.8622 14.7075 12.568L11.5271 9.38753L12.0613 9.92048C12.3554 10.2147 12.8342 10.2147 13.1284 9.92048L17.2775 5.77134C17.5717 5.47717 17.5717 4.99838 17.2775 4.70421L15.7771 3.20382C15.483 2.90965 15.0042 2.90965 14.71 3.20382L14.7026 3.2112C14.4085 3.50537 13.9297 3.50537 13.6355 3.2112L13.2158 2.79149C12.9216 2.49732 12.4428 2.49732 12.1486 2.79149L10.5682 4.37188C10.2741 4.66605 9.79528 4.66605 9.50112 4.37188L5.35074 0.221508C5.05657 -0.0726612 4.57778 -0.0726612 4.28361 0.221508L2.36351 2.14161C2.06934 2.43578 2.06934 2.91457 2.36351 3.20874L2.79061 3.63584C3.08478 3.93001 3.08478 4.40881 2.79061 4.70298C2.49644 4.99714 2.49644 5.47594 2.79061 5.77011L5.97108 8.95058L5.4369 8.41763C5.14273 8.12346 4.66394 8.12346 4.36977 8.41763L0.220627 12.568C-0.0735423 12.8622 -0.0735423 13.341 0.220627 13.6351L1.72101 15.1355C2.01518 15.4297 2.49398 15.4297 2.78815 15.1355L2.79553 15.1281C3.0897 14.834 3.5685 14.834 3.86266 15.1281L4.28238 15.5479C4.57655 15.842 5.05534 15.842 5.34951 15.5479L6.9299 13.9675C7.22407 13.6733 7.70287 13.6733 7.99704 13.9675L12.1474 18.1178C12.4416 18.412 12.9204 18.412 13.2145 18.1178L15.1346 16.1977C15.4288 15.9036 15.4288 15.4248 15.1346 15.1306L14.7075 14.7035C14.4134 14.4093 14.4134 13.9305 14.7075 13.6364V13.6351ZM11.1074 8.96782L10.0328 7.8933L11.1074 8.96659V8.96782ZM13.2145 4.69805L10.567 7.34558C10.2728 7.63975 9.79405 7.63975 9.49989 7.34558C9.20572 7.05141 9.20572 6.57261 9.49989 6.27844L12.1474 3.63092C12.4416 3.33675 12.9204 3.33675 13.2145 3.63092C13.5087 3.92509 13.5087 4.40388 13.2145 4.69805ZM3.20171 2.14038L4.28361 1.05848C4.57778 0.764306 5.05657 0.764306 5.35074 1.05848L9.08017 4.7879C9.37434 5.08207 9.37434 5.56087 9.08017 5.85504C8.786 6.14921 8.30721 6.14921 8.01304 5.85504L5.35813 3.20013C5.06396 2.90596 4.58516 2.90596 4.291 3.20013L4.27746 3.21367C3.98329 3.50784 3.50449 3.50784 3.21032 3.21367L3.20294 3.20628C2.90877 2.91211 2.90877 2.43332 3.20294 2.13915L3.20171 2.14038ZM6.3908 9.3703L7.46532 10.4448L6.3908 9.37153V9.3703ZM4.28361 13.6401L6.93113 10.9925C7.2253 10.6984 7.7041 10.6984 7.99827 10.9925C8.29244 11.2867 8.29244 11.7655 7.99827 12.0597L5.35074 14.7072C5.05657 15.0014 4.57778 15.0014 4.28361 14.7072C3.98944 14.413 3.98944 13.9342 4.28361 13.6401ZM14.2964 16.1965L13.2145 17.2784C12.9204 17.5726 12.4416 17.5726 12.1474 17.2784L8.41798 13.549C8.12381 13.2548 8.12381 12.776 8.41798 12.4818C8.71215 12.1877 9.19095 12.1877 9.48511 12.4818L12.14 15.1368C12.4342 15.4309 12.913 15.4309 13.2072 15.1368L13.2207 15.1232C13.5149 14.829 13.9937 14.829 14.2878 15.1232L14.2952 15.1306C14.5894 15.4248 14.5894 15.9036 14.2952 16.1977L14.2964 16.1965Z" fill="#FD4B32"/>
  </g>
  <defs>
    <clipPath id="clip0_467_416">
      <rect width="17.5" height="18.3382" fill="white"/>
    </clipPath>
  </defs>
</svg>
