<?xml version="1.0" encoding="UTF-8"?>
<svg xmlns="http://www.w3.org/2000/svg" width="18" height="18" viewBox="0 0 18 18" fill="none">
  <g clip-path="url(#clip0_467_366)">
    <path d="M13.6355 10.8815C12.9748 10.9888 12.3041 10.7671 11.8322 10.2952L10.8154 9.27841C10.5237 8.98667 10.5237 8.51474 10.8154 8.223L11.8322 7.20621C12.3127 6.7257 12.9948 6.5212 13.667 6.62416C14.6781 6.77861 15.7463 6.46542 16.5257 5.68746C17.8829 4.3303 17.8243 2.0965 16.3527 0.813712C15.0956 -0.281736 13.1908 -0.266005 11.9494 0.848034C11.0685 1.63744 10.7124 2.77579 10.8797 3.84693C10.9841 4.51335 10.7725 5.19121 10.2963 5.66886L9.27947 6.68566C8.98774 6.9774 8.51581 6.9774 8.22407 6.68566L7.20727 5.66886C6.72676 5.18835 6.52226 4.5062 6.62523 3.83406C6.77968 2.82299 6.46649 1.75471 5.68852 0.975312C4.32994 -0.380412 2.09471 -0.323209 0.813347 1.14978C-0.282102 2.40683 -0.266371 4.31314 0.847669 5.55303C1.63708 6.43396 2.774 6.79005 3.84514 6.62273C4.51299 6.51834 5.18942 6.72999 5.66707 7.20621L6.68386 8.223C6.9756 8.51474 6.9756 8.98667 6.68386 9.27841L5.66707 10.2952C5.18656 10.7757 4.50441 10.9802 3.83226 10.8772C2.82119 10.7228 1.75292 11.036 0.973517 11.814C-0.382208 13.1697 -0.325004 15.4063 1.14656 16.6877C2.38644 17.7674 4.26558 17.7688 5.50833 16.6906C6.42502 15.8954 6.79398 14.7299 6.61808 13.6373C6.51082 12.9766 6.73248 12.3059 7.20441 11.834L8.22121 10.8172C8.51295 10.5254 8.98488 10.5254 9.27661 10.8172L10.2934 11.834C10.7739 12.3145 10.9784 12.9966 10.8755 13.6688C10.721 14.6799 11.0342 15.7481 11.8122 16.5275C13.1693 17.8847 15.4045 17.8261 16.6859 16.3545C17.7656 15.1146 17.7671 13.2355 16.6888 11.9927C15.8936 11.076 14.7281 10.7071 13.6341 10.883L13.6355 10.8815Z" fill="#FD4B32"/>
  </g>
  <defs>
    <clipPath id="clip0_467_366">
      <rect width="17.5" height="17.5" fill="white"/>
    </clipPath>
  </defs>
</svg>
